HIERARCHY
ROOT Hips
{
	OFFSET 0.000000 0.000000 0.000000 
	CHANNELS 6 Xposition Yposition Zposition Zrotation Yrotation Xrotation
	JOINT LeftUpLeg
	{
		OFFSET 1.363060 -1.794630 0.839290 
		CHANNELS 3 Zrotation Yrotation Xrotation
		JOINT LeftLeg
		{
			OFFSET 2.448110 -6.726130 0.000000 
			CHANNELS 3 Zrotation Yrotation Xrotation
			JOINT LeftFoot
			{
				OFFSET 2.562200 -7.039590 0.000000 
				CHANNELS 3 Zrotation Yrotation Xrotation
				JOINT LeftToeBase
				{
					OFFSET 0.157640 -0.433110 2.322550 
					CHANNELS 3 Zrotation Yrotation Xrotation
					End Site
					{
						OFFSET 0.000000 0.000000 0.000000 
					}
				}
			}
		}
	}
	JOINT RightUpLeg
	{
		OFFSET -1.305520 -1.794630 0.839290 
		CHANNELS 3 Zrotation Yrotation Xrotation
		JOINT RightLeg
		{
			OFFSET -2.542530 -6.985550 0.000000 
			CHANNELS 3 Zrotation Yrotation Xrotation
			JOINT RightFoot
			{
				OFFSET -2.568260 -7.056230 0.000000 
				CHANNELS 3 Zrotation Yrotation Xrotation
				JOINT RightToeBase
				{
					OFFSET -0.164730 -0.452590 2.363150 
					CHANNELS 3 Zrotation Yrotation Xrotation
					End Site
					{
						OFFSET 0.000000 0.000000 0.000000 
					}
				}
			}
		}
	}
	JOINT Spine
	{
		OFFSET 0.028270 2.035590 -0.193380 
		CHANNELS 3 Zrotation Yrotation Xrotation
		JOINT Spine1
		{
			OFFSET 0.056720 2.048850 -0.042750 
			CHANNELS 3 Zrotation Yrotation Xrotation
			JOINT Neck1
			{
				OFFSET -0.054170 1.746240 0.172020 
				CHANNELS 3 Zrotation Yrotation Xrotation
				JOINT Head
				{
					OFFSET 0.104070 1.761360 -0.123970 
					CHANNELS 3 Zrotation Yrotation Xrotation
					End Site
					{
						OFFSET 0.000000 0.000000 0.000000 
					}
				}
			}
			JOINT LeftArm
			{
				OFFSET 3.362410 1.200890 -0.311210 
				CHANNELS 3 Zrotation Yrotation Xrotation
				JOINT LeftForeArm
				{
					OFFSET 4.983000 -0.000000 -0.000000 
					CHANNELS 3 Zrotation Yrotation Xrotation
					JOINT LeftHand
					{
						OFFSET 3.483560 -0.000000 -0.000000 
						CHANNELS 3 Zrotation Yrotation Xrotation
						JOINT LeftHandIndex1
						{
							OFFSET 0.715260 -0.000000 -0.000000 
							CHANNELS 3 Zrotation Yrotation Xrotation
							End Site
							{
								OFFSET 0.000000 0.000000 0.000000 
							}
						}
					}
				}
			}
			JOINT RightArm
			{
				OFFSET -3.136600 1.374050 -0.404650 
				CHANNELS 3 Zrotation Yrotation Xrotation
				JOINT RightForeArm
				{
					OFFSET -5.241900 -0.000000 -0.000000 
					CHANNELS 3 Zrotation Yrotation Xrotation
					JOINT RightHand
					{
						OFFSET -3.444170 -0.000000 -0.000000 
						CHANNELS 3 Zrotation Yrotation Xrotation
						JOINT RightHandIndex1
						{
							OFFSET -0.622530 -0.000000 -0.000000 
							CHANNELS 3 Zrotation Yrotation Xrotation
							End Site
							{
								OFFSET 0.000000 0.000000 0.000000 
							}
						}
					}
				}
			}
		}
	}
}
MOTION
Frames: 9
Frame Time: 0.041667
1.488745 18.072200 7.441954 -178.204951 -36.564605 175.071004 -8.640762 -4.140334 -11.174881 0.245815 10.209880 30.057315 -2.390810 9.154146 4.800827 0.962800 -6.247600 -17.504400 12.307080 11.498812 -9.673164 -2.006775 -12.990121 38.262781 -5.043013 6.627254 4.825820 -4.756000 13.103600 -39.757500 2.013387 0.503974 -1.209531 -3.276689 -0.096793 -5.684018 4.690250 -1.432940 9.866918 -0.645800 -0.434500 3.169300 -53.058179 -6.204637 30.546970 80.074490 -53.938952 -61.361416 2.983668 -0.876089 -25.296550 -7.125000 0.000000 0.000000 55.892428 -5.135299 36.319006 -41.798694 42.765815 -23.048871 0.584168 -1.983815 -3.664156 7.125000 0.000000 0.000000 
1.406986 18.072408 7.461951 -178.456785 -37.173594 175.140958 -9.095116 -4.279806 -10.859574 0.136451 10.118733 29.856187 -2.108904 8.428138 4.828765 0.934600 -6.158000 -17.243500 11.955466 11.278319 -9.483727 -1.909683 -12.917206 38.233851 -6.179281 9.816098 6.962970 -2.109800 9.091100 -26.080700 1.851313 0.399582 -1.169890 -3.377191 -0.121169 -5.847602 5.296509 -1.711953 10.293538 -0.545400 -0.530600 3.243900 -54.008179 -4.281022 34.467040 78.390943 -53.524975 -59.938484 2.910416 -0.778013 -25.884052 -7.125000 0.000000 0.000000 56.585891 -5.352548 36.380986 -40.860435 42.288209 -22.267327 0.560813 -2.033583 -3.517573 7.125000 0.000000 0.000000 
1.319290 18.070429 7.488822 -178.406801 -37.499771 175.140664 -9.266252 -4.316341 -10.652715 0.010905 9.999923 29.568769 -1.663420 7.290540 4.858619 0.583400 -4.890600 -13.596700 11.819365 11.147243 -9.342447 -1.972387 -12.950135 38.280779 -5.810413 8.657600 6.209252 -2.748900 10.277000 -29.878400 1.976229 0.386149 -1.253184 -3.647423 -0.126911 -6.155171 6.585587 -1.989995 10.971365 -0.173600 -0.609800 3.379500 -56.428307 -3.944893 37.045691 73.097014 -51.467413 -54.409150 2.527263 -0.832064 -21.766403 -7.125000 0.000000 0.000000 56.973061 -5.679648 36.575707 -39.726022 41.663482 -21.320096 0.578734 -2.087497 -3.195087 7.125000 0.000000 0.000000 
1.232740 18.074491 7.509652 -178.523637 -37.748149 175.305191 -9.581903 -4.278548 -10.495388 -0.103110 9.865565 29.159354 -1.708343 7.416556 5.038805 0.631300 -5.083800 -14.147700 11.491010 11.061521 -9.296874 -2.044714 -12.989419 38.279371 -4.955549 6.268630 5.023484 -4.476200 12.768400 -38.507700 2.046604 0.430817 -1.205156 -3.660549 -0.094427 -6.277191 7.154985 -2.319205 11.475317 -0.033900 -0.731300 3.525500 -58.458686 -3.425475 40.004383 68.334915 -49.663592 -49.745232 2.216133 -0.584267 -22.577979 -7.125000 0.000000 0.000000 57.165169 -5.838801 36.771928 -38.762951 41.123008 -20.538521 0.579580 -2.139189 -3.012187 7.125000 0.000000 0.000000 
1.140357 18.082199 7.538919 -178.592962 -38.069810 175.437910 -9.905858 -4.136240 -10.362937 -0.217400 9.726925 28.756704 -1.681207 7.360610 5.226303 0.772200 -5.610800 -15.659400 11.173662 11.071251 -9.202313 -2.096056 -13.017484 38.235780 -3.890210 3.586124 3.566988 -6.180500 14.601000 -45.702000 1.964439 0.416954 -1.250736 -3.795044 -0.093277 -6.409336 6.914328 -2.457294 11.674468 -0.170900 -0.788500 3.509300 -59.914559 -2.474033 41.995067 63.380915 -47.788821 -44.733160 1.986773 -0.474125 -20.534664 -7.125000 0.000000 0.000000 57.619189 -6.112340 37.081628 -37.898717 40.635403 -19.855802 0.518396 -2.188219 -2.807474 7.125000 0.000000 0.000000 
1.045058 18.102716 7.557145 -178.391109 -38.048356 175.458888 -9.926205 -3.566936 -10.374007 -0.328824 9.551842 28.295663 -1.449464 6.810358 5.689302 0.805000 -5.726300 -15.992300 11.146410 11.499959 -9.019324 -2.082339 -13.014836 38.187505 -3.960052 3.719605 3.365204 -5.875200 14.306300 -44.479000 1.958271 0.645754 -1.238692 -3.843897 0.033227 -6.265957 6.296911 -2.591092 11.238192 -0.412200 -0.888800 3.313400 -61.046440 -1.274820 44.257769 59.479964 -46.309818 -40.641312 1.543177 -0.302898 -21.233420 -7.125000 0.000000 0.000000 58.094954 -6.319400 37.151402 -37.111547 40.188733 -19.271772 0.390398 -2.241145 -2.808631 7.125000 0.000000 0.000000 
0.967674 18.112923 7.580892 -178.368589 -38.461372 175.682114 -10.082170 -3.369097 -10.442451 -0.457551 9.396875 27.833963 -1.287137 6.426281 6.022734 0.874300 -5.961200 -16.672000 10.917058 11.314080 -9.180893 -2.006070 -12.956776 38.116416 -5.256465 6.894760 5.347906 -3.454900 11.397400 -33.632100 1.964431 0.730836 -1.138556 -3.685101 0.083519 -6.178410 6.435471 -2.835237 11.338688 -0.422900 -0.994300 3.339400 -62.066664 -0.853496 45.367188 53.993874 -44.189204 -35.122581 1.072125 -0.051473 -21.094734 -7.125000 0.000000 0.000000 58.333517 -6.279124 37.151059 -36.251815 39.648765 -18.593941 0.400478 -2.288921 -2.580626 7.125000 0.000000 0.000000 
0.885602 18.125838 7.608076 -178.586460 -38.658409 176.028357 -10.456278 -3.426074 -10.287327 -0.593377 9.246417 27.404311 -1.173554 6.134839 6.120565 0.835300 -5.830500 -16.293300 10.459857 10.951011 -9.440097 -1.994567 -12.949707 38.160813 -5.823380 8.366887 6.484617 -2.434200 9.717200 -28.065600 1.851066 0.866953 -1.120546 -3.860039 0.138578 -6.417502 7.541192 -3.284271 12.584523 -0.133800 -1.114900 3.690200 -63.162094 -0.465564 45.629299 48.285767 -41.848081 -29.644200 0.579669 0.288112 -21.921689 -7.125000 0.000000 0.000000 58.950220 -6.636211 36.826573 -35.675293 39.273210 -18.120219 0.467205 -2.335268 -2.186950 7.125000 0.000000 0.000000 
0.796240 18.134587 7.636405 -178.910543 -38.620449 176.463321 -10.921678 -3.391947 -10.185122 -0.722019 9.108204 27.033615 -0.977340 5.618290 6.261299 0.657600 -5.186700 -14.441900 9.927867 10.668339 -9.761400 -1.983782 -12.955987 38.274044 -6.415382 10.056853 7.872127 -1.397600 7.478800 -21.141700 1.686768 1.047399 -1.217948 -4.038153 0.228659 -6.582031 8.443697 -3.502130 13.139619 0.107500 -1.164900 3.777900 -63.981853 0.247091 45.711031 43.179098 -39.517416 -25.062708 0.117840 0.632782 -23.307346 -7.125000 0.000000 0.000000 59.569744 -7.076387 36.653610 -35.134332 38.922695 -17.699735 0.454115 -2.384897 -1.719743 7.125000 0.000000 0.000000 
